<svg xmlns="http://www.w3.org/2000/svg">
  <symbol id="stripe" width="16" height="16" fill="currentColor" viewBox="0 0 16 16">
    <path d="M2 0a2 2 0 0 0-2 2v12a2 2 0 0 0 2 2h12a2 2 0 0 0 2-2V2a2 2 0 0 0-2-2zm6.226 5.385c-.584 0-.937.164-.937.593 0 .468.607.674 1.36.93 1.228.415 2.844.963 2.851 2.993C11.5 11.868 9.924 13 7.63 13a7.7 7.7 0 0 1-3.009-.626V9.758c.926.506 2.095.88 3.01.88.617 0 1.058-.165 1.058-.671 0-.518-.658-.755-1.453-1.041C6.026 8.49 4.5 7.94 4.5 6.11 4.5 4.165 5.988 3 8.226 3a7.3 7.3 0 0 1 2.734.505v2.583c-.838-.45-1.896-.703-2.734-.703"/>
  </symbol>
  <symbol id="type-bold" width="16" height="16" fill="currentColor" viewBox="0 0 16 16">
    <path d="M8.21 13c2.106 0 3.412-1.087 3.412-2.823 0-1.306-.984-2.283-2.324-2.386v-.055a2.176 2.176 0 0 0 1.852-2.14c0-1.51-1.162-2.46-3.014-2.46H3.843V13zM5.908 4.674h1.696c.963 0 1.517.451 1.517 1.244 0 .834-.629 1.32-1.73 1.32H5.908V4.673zm0 6.788V8.598h1.73c1.217 0 1.88.492 1.88 1.415 0 .943-.643 1.449-1.832 1.449H5.907z"/>
  </symbol>
  <symbol id="type-italic" width="16" height="16" fill="currentColor" viewBox="0 0 16 16">
    <path d="M7.991 11.674 9.53 4.455c.123-.595.246-.71 1.347-.807l.11-.52H7.211l-.11.52c1.06.096 1.128.212 1.005.807L6.57 11.674c-.123.595-.246.71-1.346.806l-.11.52h3.774l.11-.52c-1.06-.095-1.129-.211-1.006-.806z"/>
  </symbol>
  <symbol id="type-underline" width="16" height="16" fill="currentColor" viewBox="0 0 16 16">
    <path d="M5.313 3.136h-1.23V9.54c0 2.105 1.47 3.623 3.917 3.623s3.917-1.518 3.917-3.623V3.136h-1.23v6.323c0 1.49-.978 2.57-2.687 2.57s-2.687-1.08-2.687-2.57zM12.5 15h-9v-1h9z"/>
  </symbol>
  <symbol id="type-strikethrough" width="16" height="16" fill="currentColor" viewBox="0 0 16 16">
    <path d="M6.333 5.686c0 .31.083.581.27.814H5.166a2.8 2.8 0 0 1-.099-.76c0-1.627 1.436-2.768 3.48-2.768 1.969 0 3.39 1.175 3.445 2.85h-1.23c-.11-1.08-.964-1.743-2.25-1.743-1.23 0-2.18.602-2.18 1.607zm2.194 7.478c-2.153 0-3.589-1.107-3.705-2.81h1.23c.144 1.06 1.129 1.703 2.544 1.703 1.34 0 2.31-.705 2.31-1.675 0-.827-.547-1.374-1.914-1.675L8.046 8.5H1v-1h14v1h-3.504c.468.437.675.994.675 1.697 0 1.826-1.436 2.967-3.644 2.967"/>
  </symbol>
  <symbol id="head" width="16" height="16" fill="currentColor" viewBox="2 2 12 12">
    <path d="M11 4.002V12H9.67V8.455H6.33V12H5V4.002h1.33v3.322h3.34V4.002z"/>
  </symbol>
  <symbol id="list-ol" width="16" height="16" fill="currentColor" viewBox="0 -1 16 16">
    <path fill-rule="evenodd" d="M5 11.5a.5.5 0 0 1 .5-.5h9a.5.5 0 0 1 0 1h-9a.5.5 0 0 1-.5-.5m0-4a.5.5 0 0 1 .5-.5h9a.5.5 0 0 1 0 1h-9a.5.5 0 0 1-.5-.5m0-4a.5.5 0 0 1 .5-.5h9a.5.5 0 0 1 0 1h-9a.5.5 0 0 1-.5-.5"/>
    <path d="M1.713 11.865v-.474H2c.217 0 .363-.137.363-.317 0-.185-.158-.31-.361-.31-.223 0-.367.152-.373.31h-.59c.016-.467.373-.787.986-.787.588-.002.954.291.957.703a.595.595 0 0 1-.492.594v.033a.615.615 0 0 1 .569.631c.003.533-.502.8-1.051.8-.656 0-1-.37-1.008-.794h.582c.008.178.186.306.422.309.254 0 .424-.145.422-.35-.002-.195-.155-.348-.414-.348h-.3zm-.004-4.699h-.604v-.035c0-.408.295-.844.958-.844.583 0 .96.326.96.756 0 .389-.257.617-.476.848l-.537.572v.03h1.054V9H1.143v-.395l.957-.99c.138-.142.293-.304.293-.508 0-.18-.147-.32-.342-.32a.33.33 0 0 0-.342.338zM2.564 5h-.635V2.924h-.031l-.598.42v-.567l.629-.443h.635z"/>
  </symbol>
  <symbol id="blockquote-left" width="16" height="16" fill="currentColor" viewBox="0 0 16 16">
    <path d="M2.5 3a.5.5 0 0 0 0 1h11a.5.5 0 0 0 0-1zm5 3a.5.5 0 0 0 0 1h6a.5.5 0 0 0 0-1zm0 3a.5.5 0 0 0 0 1h6a.5.5 0 0 0 0-1zm-5 3a.5.5 0 0 0 0 1h11a.5.5 0 0 0 0-1zm.79-5.373q.168-.117.444-.275L3.524 6q-.183.111-.452.287-.27.176-.51.428a2.4 2.4 0 0 0-.398.562Q2 7.587 2 7.969q0 .54.217.873.217.328.72.328.322 0 .504-.211a.7.7 0 0 0 .188-.463q0-.345-.211-.521-.205-.182-.568-.182h-.282q.036-.305.123-.498a1.4 1.4 0 0 1 .252-.37 2 2 0 0 1 .346-.298zm2.167 0q.17-.117.445-.275L5.692 6q-.183.111-.452.287-.27.176-.51.428a2.4 2.4 0 0 0-.398.562q-.165.31-.164.692 0 .54.217.873.217.328.72.328.322 0 .504-.211a.7.7 0 0 0 .188-.463q0-.345-.211-.521-.205-.182-.568-.182h-.282a1.8 1.8 0 0 1 .118-.492q.087-.194.257-.375a2 2 0 0 1 .346-.3z"/>
  </symbol>
  <symbol id="code-slash" width="16" height="16" fill="currentColor" viewBox="0 0 16 16">
    <path d="M10.478 1.647a.5.5 0 1 0-.956-.294l-4 13a.5.5 0 0 0 .956.294zM4.854 4.146a.5.5 0 0 1 0 .708L1.707 8l3.147 3.146a.5.5 0 0 1-.708.708l-3.5-3.5a.5.5 0 0 1 0-.708l3.5-3.5a.5.5 0 0 1 .708 0m6.292 0a.5.5 0 0 0 0 .708L14.293 8l-3.147 3.146a.5.5 0 0 0 .708.708l3.5-3.5a.5.5 0 0 0 0-.708l-3.5-3.5a.5.5 0 0 0-.708 0"/>
  </symbol>
  <symbol id="three-dots" width="16" height="16" fill="currentColor" viewBox="0 0 16 16">
    <path d="M3 9.5a1.5 1.5 0 1 1 0-3 1.5 1.5 0 0 1 0 3m5 0a1.5 1.5 0 1 1 0-3 1.5 1.5 0 0 1 0 3m5 0a1.5 1.5 0 1 1 0-3 1.5 1.5 0 0 1 0 3"/>
  </symbol>
</svg>